<svg width="220" height="101" viewBox="0 0 220 101" fill="none" xmlns="http://www.w3.org/2000/svg">
<path d="M7.55853 17.8359C46.1387 72.515 138.269 85.5072 183 64.5214" stroke="#2A2A2A" stroke-linecap="round"/>
<path d="M184.854 47.2838C200.023 48.329 216.486 42.4458 218.347 44.6902C220.207 46.9345 217.392 49.2816 208.739 61.0129C197.099 76.7932 189.632 82.2946 190.842 74.876C192.052 67.4573 197.884 58.9728 193.949 58.0952C190.015 57.2176 165.892 45.9772 184.854 47.2838Z" fill="#FD791B"/>
<path d="M182.854 50.7624C198.023 51.8076 214.486 45.9245 216.347 48.1688C218.207 50.4132 215.392 52.7603 206.739 64.4915C195.099 80.2718 187.632 85.7732 188.842 78.3546C190.052 70.936 195.884 62.4515 191.949 61.5739C188.015 60.6963 163.892 49.4558 182.854 50.7624Z" stroke="#2A2A2A"/>
</svg>
