<svg width="266" height="122" viewBox="0 0 266 122" fill="none" xmlns="http://www.w3.org/2000/svg">
<path d="M32.5938 112.564C19 108 2.36704 102.06 1.77074 99.2064C1.17443 96.3527 4.75996 95.593 17.8922 89.2649C35.5569 80.7528 44.7298 79.3785 40.1934 85.3719C35.657 91.3653 26.5361 96.1412 29.6045 98.7556C32.6728 101.37 50.6118 118.614 32.5938 112.564Z" fill="#FD791B"/>
<path d="M250.502 1.00005C172.342 107.674 105.582 103.027 41.9581 98.2734" stroke="#2A2A2A" stroke-linecap="round"/>
<path d="M32.6957 106.662C19.1018 102.098 2.46891 96.158 1.8726 93.3042C1.2763 90.4504 4.86183 89.6908 17.994 83.3627C35.6588 74.8505 44.8317 73.4763 40.2953 79.4697C35.7589 85.4631 26.638 90.239 29.7063 92.8534C32.7747 95.4678 50.7137 112.712 32.6957 106.662Z" stroke="#2A2A2A"/>
</svg>
