<svg width="38" height="38" viewBox="0 0 38 38" fill="none" xmlns="http://www.w3.org/2000/svg">
<circle cx="18.8267" cy="18.8267" r="18.8267" fill="#525252"/>
<path d="M7.53088 29.9929L9.15117 23.9353C8.23055 22.2781 7.75183 20.4185 7.75183 18.5312C7.75183 12.3631 12.7692 7.3457 18.9374 7.3457C25.1055 7.3457 30.1229 12.3631 30.1229 18.5312C30.1229 24.6994 25.1055 29.7168 18.9374 29.7168C17.0869 29.7168 15.2549 29.2472 13.6162 28.3634L7.53088 29.9929ZM13.92 26.0895L14.3066 26.3197C15.7152 27.1574 17.3171 27.5993 18.9374 27.5993C23.9363 27.5993 28.0055 23.5302 28.0055 18.5312C28.0055 13.5323 23.9363 9.46313 18.9374 9.46313C13.9384 9.46313 9.86926 13.5323 9.86926 18.5312C9.86926 20.1791 10.3296 21.8086 11.1949 23.2356L11.4343 23.6223L10.5321 27.0009L13.9384 26.0895H13.92Z" fill="#2B2D34"/>
<path fill-rule="evenodd" clip-rule="evenodd" d="M23.0986 20.0887C22.6383 19.8125 22.0399 19.5087 21.4968 19.7296C21.0825 19.8953 20.8155 20.549 20.5485 20.8804C20.4104 21.0553 20.2447 21.0737 20.033 20.9909C18.4679 20.3648 17.2711 19.3245 16.4149 17.8884C16.2676 17.6674 16.2953 17.4925 16.4702 17.2808C16.7279 16.977 17.0594 16.6271 17.1238 16.2128C17.1975 15.7986 17.0041 15.3198 16.8292 14.9516C16.6083 14.4821 16.3689 13.81 15.8994 13.5431C15.4667 13.2945 14.8959 13.4326 14.5093 13.7456C13.8464 14.2888 13.5242 15.1357 13.5334 15.9827C13.5334 16.2221 13.561 16.4614 13.6255 16.6916C13.7636 17.2439 14.0121 17.7687 14.3067 18.2566C14.5277 18.6249 14.7578 18.9931 15.0156 19.3337C15.8534 20.4661 16.8937 21.4512 18.0905 22.1969C18.6889 22.5651 19.3425 22.8873 20.0146 23.1083C20.7695 23.3569 21.4415 23.6146 22.2517 23.4581C23.0986 23.2924 23.9364 22.7677 24.277 21.9483C24.3783 21.7089 24.4243 21.4328 24.3691 21.175C24.2494 20.641 23.5405 20.328 23.1078 20.0702L23.0986 20.0887Z" fill="#2B2D34"/>
</svg>
