<svg width="37" height="37" viewBox="0 0 37 37" fill="none" xmlns="http://www.w3.org/2000/svg">
<circle cx="18.5" cy="18.5" r="18.5" fill="#525252"/>
<path fill-rule="evenodd" clip-rule="evenodd" d="M24.8591 23.5891C24.1686 22.8432 23.2423 21.9757 22.1425 22.1062C21.3051 22.2005 20.4802 23.272 19.8234 23.748C19.4819 24.0007 19.1719 23.9499 18.8312 23.6885C16.3206 21.731 14.6936 19.1961 13.8905 16.1039C13.7387 15.6202 13.88 15.311 14.3075 15.0092C14.9332 14.5795 15.7164 14.1025 16.0493 13.3698C16.3988 12.6418 16.298 11.6581 16.173 10.8881C16.0173 9.9073 15.9339 8.54278 15.222 7.8092C14.5672 7.12848 13.4605 7.09174 12.5964 7.47247C11.1115 8.13729 10.0857 9.53784 9.66072 11.1079C9.5359 11.5503 9.46114 12.0068 9.45794 12.4651C9.42021 13.5567 9.59715 14.6536 9.87674 15.7061C10.0852 16.4997 10.3104 17.298 10.6001 18.0594C11.5282 20.5808 12.9003 22.9335 14.681 24.9238C15.5737 25.9105 16.5906 26.8404 17.6936 27.5925C18.9325 28.438 20.0163 29.2582 21.5665 29.3833C23.1883 29.5103 24.9806 28.9689 26.0254 27.6288C26.3338 27.2383 26.5613 26.7514 26.5956 26.2467C26.6571 25.1986 25.5353 24.2575 24.8853 23.5598L24.8591 23.5891Z" fill="#2B2D34"/>
</svg>
