<svg width="552" height="64" viewBox="0 0 552 64" fill="none" xmlns="http://www.w3.org/2000/svg">
<path d="M1.39071 47.4612C-1.4332 44.0098 -0.0311118 43.6567 14.9425 43.5859C16.8142 43.577 18.6859 43.5682 19.6201 43.2173C17.7484 43.2261 16.3447 43.2328 14.4714 42.8951C12.1317 42.9062 12.1317 42.9062 11.6604 42.2155C4.63334 40.5163 7.4328 38.7707 6.95501 36.6941C5.07185 34.2776 5.06038 31.8523 5.51522 29.0783C4.57768 28.7363 5.5103 28.0389 6.9124 27.6858C6.90748 26.6464 5.0276 24.9229 14.3894 25.5716C22.8121 25.5317 20.9338 24.1547 21.3968 23.1131C18.1131 21.3962 22.3162 19.6439 17.6288 17.9337C9.19466 15.5482 10.587 13.1163 11.9776 10.3379C10.101 9.30732 9.62814 8.27012 11.9612 6.87316C11.9399 2.36903 16.1464 1.3097 28.3124 1.25214C34.3955 1.22337 40.0073 0.50386 46.092 0.821555C45.6241 0.823769 44.6882 0.828196 44.222 1.17688C44.222 1.17688 45.1578 1.17245 46.092 0.821555C46.5599 0.819341 47.0278 0.817128 47.4958 0.814914C56.3831 0.0799129 65.7432 0.382113 74.6338 0.340054C94.7546 0.24487 114.408 0.151899 134.064 0.751871C143.893 1.39833 154.652 0.654473 164.484 1.6474C177.113 0.548221 188.818 1.87877 201.453 2.16547C208.94 2.13005 216.893 1.74595 223.917 2.75216C239.826 2.6769 255.273 3.64327 271.186 4.26095C278.676 4.91847 287.095 4.18569 295.053 4.841L295.989 4.83657C304.88 4.79451 314.24 5.09671 323.13 5.05465C332.021 5.0126 341.38 4.96832 350.27 4.92627C350.738 4.92405 351.674 4.91962 352.142 4.91741C359.63 5.22846 367.587 5.53731 375.54 5.1532C383.495 5.11557 391.449 5.07794 398.939 5.73547C406.426 5.70005 413.447 6.01332 420.467 6.32658C420.935 6.32437 421.871 6.31994 422.339 6.31773C427.486 6.29338 432.633 6.26903 439.189 7.27746C433.574 7.30402 430.3 7.55049 429.366 8.01688C434.984 8.68326 442 7.95712 447.618 8.6235C451.83 8.60358 456.509 8.58144 460.722 8.90799C464.933 8.88807 469.145 8.86814 470.087 10.2496C471.03 11.6311 471.974 13.359 472.916 14.7405L476.191 14.725L485.085 15.3758C488.829 15.3581 492.572 15.3404 496.316 15.3227C497.251 15.3183 498.655 15.3116 499.591 15.3072C502.399 15.2939 504.738 15.2829 507.078 15.2718C508.95 15.2629 511.289 15.2519 512.227 15.5939C513.63 15.5873 514.1 15.9315 514.102 16.278C514.57 16.2758 515.038 16.2736 515.505 16.2714C516.909 16.2647 518.781 16.2559 518.781 16.2559C519.72 16.9444 515.977 16.9621 515.51 17.3108C517.384 17.6484 521.125 17.2842 521.13 18.3236C521.13 18.3236 518.323 18.3369 516.919 18.3436C516.451 18.3458 515.985 18.6945 515.051 19.0454C516.926 19.7294 515.054 19.7383 513.182 19.7472C511.778 19.7538 510.843 19.7582 509.44 20.1113C511.787 21.4862 514.131 22.5145 516.477 23.8893C516.947 24.2336 517.884 24.5756 518.354 24.9199C518.354 24.9199 517.889 25.615 516.018 25.6239C516.018 25.6239 513.686 27.3673 509.475 27.3872C509.475 27.3872 509.476 27.7337 509.478 28.0802C511.35 28.0713 511.351 28.4178 509.481 28.7731C508.546 28.7776 507.143 29.1307 506.209 29.4816C508.081 29.4727 512.934 31.5008 513.874 32.1893C512.938 32.1937 508.673 32.2139 507.269 32.2205L500.601 30.894C504.344 30.8763 508.087 30.8586 510.9 31.8847C503.413 31.9201 496.859 31.2582 490.306 30.9427L494.046 29.4486C495.923 30.4792 499.261 29.8633 502.073 30.8894C504.884 31.5691 510.399 24.9575 514.146 25.6327C516.955 25.9659 520.002 26.4283 522.812 26.7615C527.491 26.7394 536.613 26.8536 541.295 27.5244C543.167 27.5156 540.302 31.7178 541.708 32.0576C543.579 32.0488 545.064 32.8921 546.468 32.8854C546.469 33.2319 549.288 35.5144 549.291 36.2073C548.362 37.5977 546.029 38.9946 551.181 40.0097C551.181 40.0097 549.312 40.7115 548.378 41.0624C547.912 41.4111 546.978 41.762 546.511 42.1106C546.515 42.8036 547.922 43.4899 545.118 44.1961C544.65 44.1983 543.717 44.8957 543.249 44.8979C541.382 45.9462 547.006 47.652 537.647 47.6962L534.372 47.7117C531.101 48.7666 527.824 48.4357 524.547 48.1047C524.547 48.1047 524.079 48.1069 523.611 48.1091C522.207 48.1158 521.271 48.1202 519.868 48.1268C518.932 48.1313 517.528 48.1379 516.592 48.1423C512.849 48.16 491.654 48.2603 488.38 48.6223C488.38 48.6223 488.38 48.6223 488.382 48.9687C488.853 49.6595 489.324 50.3502 488.393 51.394C488.393 51.394 488.386 50.0082 488.382 48.9687C491.192 49.6484 489.326 50.6967 489.798 51.7339C493.079 52.7578 488.871 53.4707 489.812 54.5056C488.411 55.2052 488.414 55.8982 489.821 56.5845L489.825 57.2774C492.171 58.6522 484.679 57.6482 484.214 58.3434C488.432 59.7094 486.094 60.0669 481.43 60.089C478.155 60.1045 475.347 60.1177 472.07 59.7868C464.585 60.1687 456.632 60.5528 449.144 60.2417L448.676 60.2439C442.591 59.9262 443.114 60.2702 437.031 60.299C436.563 60.3012 435.627 60.3056 435.16 60.3079C435.16 60.3079 434.692 60.3101 434.224 60.3123C433.288 60.3167 431.884 60.3234 430.948 60.3278L434.224 60.3123C431.416 60.3256 428.609 60.3388 425.333 60.3543C418.782 60.3853 420.257 60.7248 413.704 60.4094L405.281 60.4492C399.666 60.4758 394.051 60.5023 388.434 60.1824C384.691 60.2001 380.48 60.22 376.736 60.2378C371.121 60.2643 365.04 60.6396 359.889 59.971C358.486 59.9776 356.614 59.9865 355.21 59.9931C349.127 60.0219 342.578 60.3993 336.493 60.0817C331.346 60.106 326.199 60.1304 321.051 60.1547C313.097 60.1923 304.676 60.5786 297.187 60.2676C290.636 60.2986 284.085 60.3296 277.534 60.3606C275.663 60.3694 273.791 60.3783 271.919 60.3871C270.515 60.3938 269.581 60.7447 268.176 60.4048C262.561 60.4314 256.946 60.458 251.33 60.4845C251.33 60.4845 246.651 60.5067 244.312 60.5177C214.364 60.6594 184.887 61.1453 154.939 61.287C135.286 61.38 115.166 61.4751 95.5127 61.5681C92.7051 61.5814 89.4296 61.5969 86.6221 61.6102C86.6221 61.6102 85.6862 61.6146 85.2183 61.6168C84.2825 61.6212 83.3466 61.6257 81.9428 61.6323C64.1583 61.0235 44.5137 62.8488 29.0574 59.8036C29.9932 59.7992 30.4611 59.797 31.397 59.7926C31.397 59.7926 31.397 59.7926 30.9291 59.7948C30.9291 59.7948 29.9932 59.7992 29.0574 59.8036C23.4423 59.8302 17.8255 59.5103 13.1413 58.493C9.86586 58.5085 7.52458 58.1731 6.11751 57.4868C0.495845 56.1275 6.1027 54.3685 2.35278 53.0004C0.477754 52.3163 1.41038 51.6189 2.34294 50.9215C-0.4712 49.5489 1.86352 48.4985 0.92112 47.117C-0.485951 46.4307 0.448252 46.0798 0.912925 45.3846L1.39071 47.4612ZM542.32 46.2882L541.384 46.2927C541.384 46.2927 541.852 46.2904 542.32 46.2882ZM494.986 30.9206C494.986 30.9206 495.921 30.9161 496.389 30.9139C495.453 30.9184 494.518 30.9228 493.582 30.9272C493.582 30.9272 494.518 30.9228 494.986 30.9206ZM468.256 18.9202C468.256 18.9202 466.853 18.9269 465.917 18.9313C465.917 18.9313 466.385 18.9291 466.853 18.9269L467.788 18.9225L468.256 18.9202ZM42.3846 8.46164C42.3846 8.46164 42.8525 8.45942 43.3205 8.45721C43.3205 8.45721 42.8525 8.45942 42.3846 8.46164ZM88.8208 31.8026C88.8208 31.8026 88.8208 31.8026 89.2887 31.8003L88.8208 31.8026ZM295.61 23.5482C295.61 23.5482 295.61 23.5482 295.608 23.2018C295.608 23.2018 295.14 23.204 294.672 23.2062C294.672 23.2062 294.672 23.2062 295.608 23.2018L295.61 23.5482ZM321.4 34.8601L322.336 34.8556C320.932 34.8623 320.464 34.8645 319.528 34.8689C319.528 34.8689 320.464 34.8645 320.932 34.8623L321.4 34.8601ZM190.33 24.7392C190.33 24.7392 190.33 24.7392 190.798 24.737C190.798 24.737 190.798 24.737 190.33 24.7392ZM197.893 40.988C197.893 40.988 197.893 40.988 198.361 40.9858C198.361 40.9858 198.361 40.9858 197.893 40.988ZM118.709 19.1879C118.709 19.1879 117.772 18.8459 116.837 19.1968C116.837 19.1968 116.369 19.199 115.901 19.2012C116.837 19.1968 117.773 19.1923 118.709 19.1879ZM282.504 22.9173C279.229 22.9328 275.954 22.9483 273.146 22.9616C276.421 22.9461 279.229 22.9328 282.504 22.9173ZM391.513 18.5903C391.513 18.5903 391.513 18.5903 391.981 18.5881C391.981 18.5881 391.981 18.5881 391.513 18.5903ZM405.559 20.2563C406.495 20.2519 406.963 20.2496 407.899 20.2452C406.963 20.2496 406.495 20.2519 405.558 19.9098L405.559 20.2563ZM63.9682 20.8328C63.9682 20.8328 63.0324 20.8372 62.0982 21.1881C63.034 21.1837 63.9699 21.1793 63.9682 20.8328ZM79.8122 6.89866C84.4898 6.53006 89.637 6.50571 94.3129 5.79063C90.1049 6.50349 85.8968 7.21636 79.8122 6.89866ZM392.611 52.8866C392.611 52.8866 397.291 52.8645 399.63 52.8534C397.291 52.8645 394.951 52.8755 392.611 52.8866ZM116.936 39.9851C116.936 39.9851 114.593 39.3032 112.721 39.312C114.125 39.3054 115.53 39.6452 116.936 39.9851ZM90.7187 37.3372C90.7187 37.3372 94.93 37.3173 95.398 37.3151C95.398 37.3151 95.8659 37.3129 96.3338 37.3107C94.4621 37.3195 92.592 37.6749 90.7203 37.6837L90.7187 37.3372ZM79.9269 31.1517C79.9269 31.1517 79.4589 31.1539 78.5231 31.1583C79.4589 31.1539 80.3948 31.1495 81.3307 31.145C81.3307 31.145 80.3948 31.1495 79.9269 31.1517ZM258.583 10.9037C258.583 10.9037 259.051 10.9015 259.519 10.8992C259.519 10.8992 258.583 10.9037 258.115 10.9059C258.115 10.9059 258.115 10.9059 258.583 10.9037ZM434.104 20.4677C434.104 20.4677 431.765 20.4788 429.891 20.1412C429.891 20.1412 429.423 20.1434 429.427 20.8363C430.83 20.8297 432.702 20.8208 434.106 20.8142L434.104 20.4677ZM418.31 44.796C418.31 44.796 416.438 44.8048 415.502 44.8093C415.97 44.8071 416.906 44.8026 417.375 45.1469C417.375 45.1469 417.374 44.8004 418.308 44.4495L418.31 44.796ZM360.792 53.0371C360.792 53.0371 362.196 53.0305 362.199 53.7234C362.199 53.7234 362.199 53.7234 362.666 53.3747C361.73 53.3792 361.262 53.3814 360.794 53.3836L360.792 53.0371ZM300.926 59.2105C300.926 59.2105 302.797 59.2016 303.733 59.1972C302.797 59.2016 301.862 59.206 300.926 59.2105ZM41.0366 20.2483C41.0366 20.2483 41.0365 20.2483 41.5045 20.2461C40.5686 20.2505 40.5687 20.2505 40.1008 20.2527C40.1008 20.2527 40.5686 20.2505 41.0366 20.2483ZM359.655 10.4255C359.655 10.4255 360.591 10.4211 361.527 10.4167C361.059 10.4189 360.123 10.4233 359.655 10.4255ZM442.964 13.8427L442.028 13.8471C442.028 13.8471 442.028 13.8471 442.496 13.8449C442.496 13.8449 442.496 13.8449 442.964 13.8427ZM474.405 58.7363C474.405 58.7363 474.405 58.7363 473.469 58.7407C473.937 58.7385 474.405 58.7363 474.873 58.7341C474.873 58.7341 474.873 58.7341 474.405 58.7363ZM330.839 51.7929C330.839 51.7929 330.839 51.7929 330.371 51.7951L330.839 51.7929ZM245.233 57.3951C245.233 57.3951 244.297 57.3995 243.829 57.4017C244.297 57.3995 244.765 57.3973 245.233 57.3951ZM174.998 48.0259C174.998 48.0259 174.998 48.0259 174.53 48.0281C174.53 48.0281 174.53 48.0281 174.998 48.0259ZM72 37.0793C72 37.0793 71.5321 37.0815 71.0642 37.0837C71.0642 37.0837 72 37.0793 72.4679 37.0771L72 37.0793ZM43.5024 46.9156L43.0345 46.9178C42.5665 46.92 42.0986 46.9222 41.1644 47.2731C42.1002 47.2687 43.0361 47.2642 43.5041 47.262L43.5024 46.9156ZM22.3326 23.1086C22.3326 23.1086 22.3327 23.1086 22.8006 23.1064C22.8006 23.1064 22.8006 23.1064 22.3326 23.1086ZM33.5497 20.2837C33.5497 20.2837 33.5481 19.9373 33.5465 19.5908C33.5465 19.5908 33.5481 19.9373 33.5497 20.2837ZM113.954 3.27236C113.954 3.27236 113.954 3.27236 113.486 3.27457L113.954 3.27236ZM346.074 8.06443C346.074 8.06443 346.074 8.06443 346.541 8.06222C346.541 8.06222 346.542 8.06222 346.074 8.06443ZM531.543 43.2209C531.543 43.2209 533.416 43.5585 534.352 43.5541L534.349 42.8611C533.413 42.8656 532.945 42.8678 531.541 42.8744L531.543 43.2209ZM466.457 60.1598C463.181 60.1753 460.374 60.1886 457.097 59.8576C458.5 59.851 460.374 60.1886 462.246 60.1797C464.117 60.1709 465.989 60.162 467.861 60.1532C467.393 60.1554 466.925 60.1576 466.457 60.1598ZM39.7967 54.9021C39.7967 54.9021 39.7967 54.9021 39.3288 54.9043C39.3288 54.9043 39.7967 54.9021 40.2647 54.8999L39.7967 54.9021ZM119.097 2.20859C119.097 2.20859 119.097 2.20859 118.629 2.21081L119.097 2.20859ZM325.945 6.42726C325.945 6.42726 325.945 6.42726 325.477 6.42947L325.945 6.42726ZM490.709 17.0816C490.709 17.0816 490.709 17.0816 491.177 17.0794C491.644 17.0772 489.773 17.0861 491.177 17.0794L490.709 17.0816ZM524.967 38.0548L525.903 38.0504C525.435 38.0526 524.967 38.0548 524.499 38.057L524.967 38.0548ZM433.288 60.3167C433.288 60.3167 433.756 60.3145 434.224 60.3123L433.288 60.3167ZM200.338 63.1511C200.338 63.1511 200.338 63.1511 199.87 63.1533L200.338 63.1511ZM139.508 63.4389C139.508 63.4389 139.975 63.4367 140.443 63.4344C140.443 63.4344 140.443 63.4344 139.976 63.4367L139.508 63.4389ZM47.3228 63.182C44.9832 63.1931 42.642 62.8577 40.3007 62.5223C42.6403 62.5112 44.5153 63.1953 47.3228 63.182Z" fill="#FA9225"/>
</svg>
