<svg width="1726" height="112" viewBox="0 0 1726 112" fill="none" xmlns="http://www.w3.org/2000/svg">
<path d="M245.5 83.8432C71.0573 82.6466 5.14423 60.0626 -8.39215 56.0738C-195.547 31.6425 -387.117 129 -89.6104 129C207.896 129 1525.93 118.897 1726.32 117.9C1926.72 116.903 1867.27 88.3068 1794 75.3432C1720.73 62.3796 1623.5 24.6621 1459.72 24.6621C1343.1 24.6621 1221.2 64.55 1113.5 63.0542C1005.8 61.5584 888.952 33.8432 753 33.8432C517.999 33.8432 463.553 85.339 245.5 83.8432Z" fill="white"/>
<path d="M-7.88062 31.4046C5.56807 35.6797 70.987 59.6573 245.365 64.5553C463.338 70.6779 518.863 20.349 753.812 25.3357C889.734 28.2206 1005.96 58.409 1113.61 62.1899C1221.26 65.9708 1343.97 28.6785 1460.56 31.1531C1624.31 34.6286 1720.72 74.4008 1793.7 88.9163" stroke="#FA9225"/>
</svg>
