<svg width="18" height="23" viewBox="0 0 18 23" fill="none" xmlns="http://www.w3.org/2000/svg">
<path d="M8.56345 0.499969C13.0214 0.499969 16.6279 4.07934 16.6279 8.48434C16.6278 12.3852 14.6571 15.6655 12.5966 18.04C11.5698 19.2233 10.5304 20.1695 9.72556 20.8418C9.32365 21.1775 8.98064 21.4444 8.72653 21.6386C8.66297 21.6872 8.605 21.7318 8.5527 21.7715C8.5437 21.7783 8.53407 21.7844 8.52536 21.791C8.50563 21.7787 8.48445 21.7665 8.46286 21.7529C8.23742 21.6106 7.91256 21.3951 7.52145 21.1084C6.7386 20.5345 5.69386 19.6761 4.65036 18.539C2.56154 16.2628 0.500106 12.8992 0.499969 8.48434C0.499969 4.07945 4.10566 0.500135 8.56345 0.499969Z" stroke="white"/>
<circle cx="8.56369" cy="8.56317" r="4.11127" stroke="white"/>
</svg>
