<svg width="1318" height="141" viewBox="0 0 1318 141" fill="none" xmlns="http://www.w3.org/2000/svg">
<path d="M5.90257 110.963C2.26072 105.002 3.92456 104.319 21.9517 103.546C24.2051 103.449 26.4585 103.353 27.559 102.694C25.3056 102.79 23.6156 102.863 21.336 102.349C18.5193 102.47 18.5192 102.47 17.9035 101.273C9.3224 98.5816 12.5717 95.3836 11.8513 91.744C9.41466 87.5662 9.23143 83.2918 9.58536 78.3827C8.43249 77.8203 9.50683 76.5508 11.1707 75.8677C11.0922 74.0358 8.70788 71.0793 20.0272 71.8176C30.1675 71.3829 27.8093 69.037 28.2941 67.1809C24.2198 64.2969 29.1591 61.0264 23.3948 58.2147C13.0712 54.3751 14.578 50.0282 16.0587 45.0708C13.7268 43.3355 13.0849 41.5278 15.7969 38.9645C15.4566 31.0264 20.4483 28.9771 35.0953 28.3492C42.4189 28.0353 49.1267 26.5242 56.4764 26.8209C55.913 26.8451 54.7864 26.8934 54.2492 27.5281C54.2492 27.5281 55.3759 27.4798 56.4764 26.8209C57.0397 26.7968 57.6031 26.7726 58.1664 26.7485C68.8177 25.0684 80.1108 25.196 90.8145 24.7372C115.038 23.6987 138.699 22.6844 162.412 22.8914C174.295 23.6055 187.199 21.8288 199.108 23.1535C214.24 20.6696 228.429 22.5084 243.665 22.4669C252.679 22.0805 262.23 21.0594 270.758 22.529C289.912 21.7079 308.581 22.7428 327.787 23.143C336.853 23.9779 346.941 22.3219 356.571 23.1326L357.697 23.0843C368.401 22.6255 379.694 22.7531 390.398 22.2943C401.101 21.8354 412.368 21.3524 423.072 20.8936C423.635 20.8694 424.762 20.8211 425.325 20.797C434.365 21.0212 443.968 21.2213 453.519 20.2001C463.096 19.7896 472.673 19.379 481.739 20.2139C490.752 19.8275 499.229 20.0758 507.705 20.3242C508.268 20.3001 509.395 20.2518 509.958 20.2276C516.155 19.962 522.352 19.6963 530.318 21.1901C523.557 21.4799 519.631 22.056 518.54 22.9185C525.352 23.85 533.75 22.2665 540.563 23.1979C545.633 22.9806 551.266 22.7391 556.362 23.1324C561.433 22.915 566.503 22.6977 567.734 25.0919C568.966 27.4861 570.223 30.4909 571.455 32.8851L575.398 32.7161L586.154 33.4785C590.661 33.2853 595.168 33.0921 599.674 32.8989C600.801 32.8506 602.491 32.7781 603.618 32.7298C606.998 32.5849 609.815 32.4642 612.631 32.3434C614.885 32.2468 617.701 32.1261 618.854 32.6884C620.544 32.6159 621.134 33.2024 621.16 33.813C621.723 33.7889 622.287 33.7647 622.85 33.7406C624.54 33.6681 626.794 33.5715 626.794 33.5715C627.973 34.7445 623.466 34.9377 622.929 35.5725C625.208 36.0865 629.689 35.2827 629.767 37.1146C629.767 37.1146 626.387 37.2595 624.697 37.3319C624.134 37.3561 623.597 37.9908 622.496 38.6498C624.802 39.7744 622.549 39.871 620.295 39.9676C618.605 40.0401 617.478 40.0884 615.815 40.7714C618.736 43.0932 621.631 44.8043 624.553 47.1261C625.142 47.7125 626.295 48.2749 626.885 48.8614C626.885 48.8614 626.374 50.1068 624.12 50.2034C624.12 50.2034 621.434 53.3772 616.364 53.5946C616.364 53.5946 616.39 54.2052 616.417 54.8158C618.67 54.7192 618.696 55.3299 616.469 56.0371C615.342 56.0854 613.678 56.7685 612.578 57.4274C614.831 57.3308 620.818 60.6955 621.997 61.8684C620.87 61.9167 615.735 62.1369 614.045 62.2093L605.922 60.1597C610.429 59.9665 614.936 59.7733 618.395 61.4603C609.381 61.8467 601.442 60.9635 593.529 60.691L597.928 57.8956C600.26 59.6309 604.237 58.4009 607.695 60.0878C611.128 61.1642 617.308 49.2719 621.867 50.3C625.273 50.7657 628.975 51.4488 632.382 51.9145C638.015 51.673 649.008 51.4797 654.694 52.4594C656.947 52.3628 653.791 59.8937 655.507 60.4319C657.761 60.3353 659.607 61.7575 661.297 61.6851C661.324 62.2957 664.877 66.1969 664.93 67.4181C663.908 69.9089 661.195 72.4722 667.471 74.0384C667.471 74.0384 665.27 75.3563 664.169 76.0152C663.632 76.65 662.532 77.3089 661.994 77.9437C662.047 79.1649 663.789 80.3137 660.461 81.6799C659.898 81.704 658.824 82.9736 658.26 82.9977C656.086 84.9262 662.977 87.6895 651.71 88.1725L647.766 88.3416C643.901 90.3425 639.932 89.9009 635.962 89.4594C635.962 89.4594 635.399 89.4835 634.835 89.5077C633.145 89.5801 632.019 89.6284 630.329 89.7009C629.202 89.7492 627.512 89.8216 626.385 89.8699C621.878 90.0631 596.361 91.157 592.444 91.9366C592.444 91.9366 592.444 91.9367 592.47 92.5473C593.086 93.7444 593.702 94.9415 592.653 96.8217C592.653 96.8217 592.549 94.3792 592.47 92.5473C595.903 93.6236 593.728 95.5521 594.37 97.3598C598.392 99.0227 593.374 100.461 594.579 102.245C592.941 103.539 592.994 104.76 594.736 105.909L594.788 107.13C597.71 109.452 588.618 108.006 588.107 109.252C593.282 111.477 590.491 112.208 584.876 112.449C580.933 112.618 577.552 112.763 573.583 112.321C564.595 113.318 555.045 114.339 546.005 114.115L545.442 114.139C538.092 113.843 538.746 114.426 531.423 114.74C530.859 114.764 529.733 114.813 529.169 114.837C529.169 114.837 528.606 114.861 528.043 114.885C526.916 114.933 525.226 115.006 524.099 115.054L528.043 114.885C524.662 115.03 521.282 115.175 517.339 115.344C509.452 115.682 511.251 116.217 503.338 115.944L493.198 116.379C486.438 116.669 479.678 116.958 472.891 116.638C468.385 116.831 463.314 117.048 458.808 117.241C452.047 117.531 444.75 118.456 438.501 117.5C436.811 117.573 434.557 117.669 432.867 117.742C425.544 118.056 417.683 119.004 410.333 118.708C404.137 118.973 397.94 119.239 391.743 119.505C382.166 119.915 372.052 120.96 363.012 120.736C355.125 121.074 347.238 121.412 339.352 121.75C337.098 121.847 334.845 121.944 332.591 122.04C330.901 122.113 329.801 122.772 328.085 122.233C321.324 122.523 314.564 122.813 307.804 123.103C307.804 123.103 302.171 123.344 299.354 123.465C263.299 125.011 227.835 127.143 191.78 128.688C168.12 129.703 143.896 130.741 120.235 131.755C116.855 131.9 112.912 132.069 109.531 132.214C109.531 132.214 108.405 132.263 107.841 132.287C106.715 132.335 105.588 132.383 103.898 132.456C82.4383 132.152 58.9086 136.22 40.0825 131.521C41.2092 131.473 41.7725 131.448 42.8992 131.4C42.8992 131.4 42.8992 131.4 42.3359 131.424C42.3359 131.424 41.2092 131.473 40.0825 131.521C33.3223 131.811 26.5359 131.49 20.8239 129.899C16.8805 130.069 14.0376 129.579 12.2952 128.43C5.43027 126.277 12.0595 122.934 7.44805 120.685C5.1423 119.56 6.21665 118.291 7.29099 117.021C3.80619 114.724 6.5444 112.771 5.313 110.377C3.5706 109.228 4.67112 108.569 5.18212 107.324L5.90257 110.963ZM657.238 85.4885L656.112 85.5368C656.112 85.5368 656.675 85.5127 657.238 85.4885ZM599.162 60.4495C599.162 60.4495 600.289 60.4012 600.852 60.377C599.726 60.4253 598.599 60.4736 597.472 60.5219C597.472 60.5219 598.599 60.4736 599.162 60.4495ZM566.135 40.4541C566.135 40.4541 564.445 40.5266 563.318 40.5749C563.318 40.5749 563.882 40.5507 564.445 40.5266L565.572 40.4783L566.135 40.4541ZM52.5455 40.4479C52.5455 40.4479 53.1088 40.4237 53.6722 40.3996C53.6722 40.3996 53.1088 40.4237 52.5455 40.4479ZM110.097 79.5796C110.097 79.5796 110.097 79.5796 110.66 79.5555L110.097 79.5796ZM358.547 56.0823C358.547 56.0823 358.547 56.0823 358.521 55.4717C358.521 55.4717 357.958 55.4958 357.395 55.52C357.395 55.52 357.395 55.5199 358.521 55.4717L358.547 56.0823ZM390.395 74.9047L391.522 74.8564C389.832 74.9289 389.269 74.953 388.142 75.0013C388.142 75.0013 389.269 74.953 389.832 74.9289L390.395 74.9047ZM231.846 62.7372C231.846 62.7372 231.846 62.7372 232.41 62.7131C232.41 62.7131 232.41 62.7131 231.846 62.7372ZM242.09 91.0503C242.09 91.0503 242.09 91.0503 242.654 91.0261C242.654 91.0261 242.654 91.0261 242.09 91.0503ZM145.209 56.0515C145.209 56.0515 144.056 55.4892 142.956 56.1481C142.956 56.1481 142.392 56.1723 141.829 56.1964C142.956 56.1481 144.082 56.0998 145.209 56.0515ZM342.721 55.5372C338.778 55.7063 334.834 55.8753 331.454 56.0202C335.398 55.8512 338.778 55.7063 342.721 55.5372ZM473.694 43.1934C473.694 43.1934 473.694 43.1934 474.257 43.1693C474.257 43.1693 474.257 43.1693 473.694 43.1934ZM490.725 45.5221C491.852 45.4738 492.415 45.4496 493.542 45.4013C492.415 45.4496 491.852 45.4738 490.699 44.9114L490.725 45.5221ZM79.4019 61.3195C79.4019 61.3195 78.2752 61.3678 77.1747 62.0268C78.3014 61.9785 79.428 61.9302 79.4019 61.3195ZM97.5086 36.0734C103.116 35.2213 109.313 34.9556 114.894 33.4929C109.876 34.9315 104.858 36.3701 97.5086 36.0734ZM477.412 103.597C477.412 103.597 483.045 103.356 485.862 103.235C483.045 103.356 480.229 103.476 477.412 103.597ZM144.526 92.7857C144.526 92.7857 141.657 91.6852 139.404 91.7818C141.094 91.7093 142.81 92.2475 144.526 92.7857ZM112.769 89.2531C112.769 89.2531 117.839 89.0357 118.403 89.0116C118.403 89.0116 118.966 88.9874 119.529 88.9633C117.276 89.0599 115.049 89.7671 112.795 89.8637L112.769 89.2531ZM99.341 78.8172C99.341 78.8172 98.7777 78.8414 97.651 78.8897C98.7777 78.8414 99.9044 78.7931 101.031 78.7448C101.031 78.7448 99.9044 78.7931 99.341 78.8172ZM313.074 35.3969C313.074 35.3969 313.638 35.3728 314.201 35.3486C314.201 35.3486 313.074 35.3969 312.511 35.4211C312.511 35.4211 312.511 35.4211 313.074 35.3969ZM525.115 44.6596C525.115 44.6596 522.299 44.7803 520.019 44.2663C520.019 44.2663 519.456 44.2904 519.508 45.5117C521.198 45.4392 523.452 45.3426 525.142 45.2702L525.115 44.6596ZM507.794 88.2245C507.794 88.2245 505.541 88.3211 504.414 88.3694C504.977 88.3452 506.104 88.2969 506.693 88.8834C506.693 88.8834 506.667 88.2728 507.768 87.6138L507.794 88.2245ZM439.104 105.239C439.104 105.239 440.794 105.167 440.846 106.388C440.846 106.388 440.846 106.388 441.384 105.753C440.257 105.802 439.694 105.826 439.13 105.85L439.104 105.239ZM367.44 118.711C367.44 118.711 369.694 118.615 370.821 118.566C369.694 118.615 368.567 118.663 367.44 118.711ZM51.7454 61.2816C51.7454 61.2816 51.7454 61.2816 52.3087 61.2575C51.182 61.3058 51.1821 61.3058 50.6188 61.3299C50.6188 61.3299 51.1821 61.3058 51.7454 61.2816ZM434.758 30.1806C434.758 30.1806 435.884 30.1323 437.011 30.084C436.448 30.1081 435.321 30.1564 434.758 30.1806ZM535.322 32.5988L534.195 32.6471C534.195 32.6471 534.195 32.6471 534.758 32.623C534.758 32.623 534.758 32.623 535.322 32.5988ZM576.321 110.369C576.321 110.369 576.321 110.369 575.194 110.417C575.758 110.393 576.321 110.369 576.884 110.344C576.884 110.344 576.884 110.344 576.321 110.369ZM402.945 104.342C402.945 104.342 402.945 104.342 402.382 104.367L402.945 104.342ZM300.245 117.921C300.245 117.921 299.118 117.969 298.555 117.994C299.118 117.969 299.682 117.945 300.245 117.921ZM215.01 104.446C215.01 104.446 215.01 104.446 214.446 104.47C214.446 104.47 214.446 104.47 215.01 104.446ZM90.2091 89.6084C90.2091 89.6084 89.6457 89.6326 89.0824 89.6567C89.0824 89.6567 90.2091 89.6084 90.7724 89.5843L90.2091 89.6084ZM56.5778 108.179L56.0144 108.203C55.451 108.227 54.8877 108.252 53.7872 108.91C54.9139 108.862 56.0406 108.814 56.6039 108.79L56.5778 108.179ZM29.4209 67.1326C29.4209 67.1326 29.4209 67.1326 29.9843 67.1085C29.9843 67.1085 29.9842 67.1085 29.4209 67.1326ZM42.7318 61.668C42.7318 61.668 42.7057 61.0574 42.6795 60.4468C42.6795 60.4468 42.7057 61.0574 42.7318 61.668ZM138.371 28.2042C138.371 28.2042 138.371 28.2042 137.808 28.2284L138.371 28.2042ZM418.237 26.6066C418.237 26.6066 418.237 26.6066 418.801 26.5824C418.801 26.5824 418.801 26.5824 418.237 26.6066ZM644.046 80.5483C644.046 80.5483 646.325 81.0624 647.452 81.0141L647.4 79.7928C646.273 79.8411 645.71 79.8653 644.02 79.9377L644.046 80.5483ZM566.849 113.222C562.905 113.391 559.525 113.536 555.556 113.094C557.246 113.021 559.525 113.536 561.779 113.439C564.032 113.342 566.286 113.246 568.539 113.149C567.976 113.173 567.412 113.197 566.849 113.222ZM52.673 122.417C52.673 122.417 52.673 122.417 52.1097 122.441C52.1097 122.441 52.6731 122.417 53.2364 122.393L52.673 122.417ZM144.49 26.1067C144.49 26.1067 144.49 26.1067 143.926 26.1308L144.49 26.1067ZM393.882 24.5919C393.882 24.5919 393.882 24.5919 393.319 24.616L393.882 24.5919ZM593.045 36.2418C593.045 36.2418 593.045 36.2418 593.608 36.2176C591.918 36.2901 594.172 36.1935 593.608 36.2176L593.045 36.2418ZM635.766 71.7271L636.893 71.6788C636.33 71.7029 635.766 71.7271 635.203 71.7512L635.766 71.7271ZM526.916 114.933C526.916 114.933 527.479 114.909 528.043 114.885L526.916 114.933ZM246.582 130.01C246.582 130.01 246.582 130.01 246.019 130.034L246.582 130.01ZM173.347 133.149C173.347 133.149 173.91 133.125 174.474 133.101C174.474 133.101 174.474 133.101 173.91 133.125L173.347 133.149ZM62.3148 136.685C59.4981 136.806 56.6552 136.316 53.8123 135.826C56.629 135.706 58.9347 136.83 62.3148 136.685Z" fill="#FFF1D9"/>
<path d="M375.82 100.009C372.218 94.9925 373.886 94.404 391.913 93.6312C394.167 93.5346 396.42 93.438 397.525 92.8736C395.271 92.9702 393.581 93.0426 391.306 92.6231C388.489 92.7438 388.489 92.7438 387.881 91.7357C379.321 89.5174 382.59 86.7918 381.894 83.7192C379.486 80.203 379.331 76.5901 379.717 72.437C378.568 71.9692 379.651 70.8886 381.319 70.3C381.252 68.7517 378.888 66.2677 390.2 66.8169C400.34 66.3822 397.998 64.4143 398.495 62.8418C394.441 60.4302 399.4 57.6323 393.656 55.2931C383.361 52.115 384.896 48.4297 386.409 44.2282C384.089 42.7764 383.46 41.2522 386.188 39.067C385.9 32.3574 390.904 30.5917 405.551 29.9638C412.875 29.6498 419.591 28.3278 426.936 28.5299C426.373 28.5541 425.246 28.6024 424.705 29.1427C424.705 29.1427 425.832 29.0944 426.936 28.5299C427.5 28.5058 428.063 28.4816 428.626 28.4575C439.286 26.9664 450.575 26.9995 461.278 26.5407C485.502 25.5022 509.163 24.4879 532.868 24.5059C544.743 25.031 557.655 23.4433 569.552 24.4845C584.696 22.2841 598.868 23.7449 614.101 23.6089C623.114 23.2226 632.669 22.2959 641.186 23.482C660.34 22.6609 678.997 23.4123 698.195 23.6235C707.253 24.2693 717.349 22.8024 726.97 23.4241L728.096 23.3758C738.8 22.917 750.089 22.9501 760.793 22.4912C771.496 22.0324 782.763 21.5494 793.467 21.0905C794.03 21.0664 795.157 21.0181 795.72 20.9939C804.756 21.1237 814.355 21.2293 823.91 20.3026C833.487 19.892 843.064 19.4815 852.122 20.1273C861.135 19.7409 869.608 19.8948 878.08 20.0487C878.643 20.0245 879.77 19.9762 880.333 19.9521C886.53 19.6864 892.727 19.4208 900.68 20.6311C893.92 20.9209 889.991 21.434 888.894 22.1705C895.699 22.9129 904.105 21.5184 910.909 22.2609C915.979 22.0435 921.613 21.802 926.705 22.1008C931.775 21.8835 936.845 21.6661 938.06 23.6823C939.276 25.6985 940.513 28.2308 941.728 30.247L945.672 30.078L956.419 30.6514C960.926 30.4582 965.433 30.265 969.94 30.0718C971.067 30.0235 972.757 29.951 973.883 29.9027C977.263 29.7578 980.08 29.6371 982.897 29.5163C985.15 29.4197 987.967 29.299 989.116 29.7668C990.806 29.6943 991.391 30.1863 991.413 30.7024C991.977 30.6783 992.54 30.6541 993.104 30.63C994.794 30.5575 997.047 30.4609 997.047 30.4609C998.218 31.4449 993.711 31.6381 993.17 32.1784C995.445 32.5979 999.93 31.8886 999.996 33.4369C999.996 33.4369 996.616 33.5818 994.926 33.6543C994.363 33.6784 993.822 34.2187 992.717 34.7831C995.015 35.7188 992.761 35.8154 990.508 35.912C988.818 35.9844 987.691 36.0327 986.023 36.6213C988.929 38.565 991.812 39.9927 994.717 41.9364C995.302 42.4284 996.451 42.8962 997.037 43.3882C997.037 43.3882 996.518 44.4446 994.264 44.5412C994.264 44.5412 991.558 47.2425 986.488 47.4599C986.488 47.4599 986.51 47.976 986.532 48.4921C988.786 48.3955 988.808 48.9117 986.576 49.5244C985.45 49.5727 983.782 50.1613 982.677 50.7257C984.931 50.6291 990.893 53.4344 992.064 54.4183C990.938 54.4666 985.803 54.6867 984.113 54.7592L976.006 53.08C980.512 52.8868 985.019 52.6936 988.466 54.097C979.452 54.4834 971.521 53.7893 963.612 53.6113L968.028 51.2186C970.348 52.6704 974.332 51.604 977.778 53.0075C981.203 53.8948 987.46 43.7987 992.011 44.6378C995.413 45.009 999.11 45.5621 1002.51 45.9333C1008.15 45.6918 1019.14 45.4555 1024.81 46.2463C1027.07 46.1497 1023.86 52.5381 1025.57 52.9818C1027.83 52.8852 1029.66 54.0755 1031.35 54.003C1031.38 54.5191 1034.9 57.7941 1034.95 58.8264C1033.91 60.9392 1031.18 63.1244 1037.44 64.4071C1037.44 64.4071 1035.24 65.536 1034.13 66.1004C1033.59 66.6407 1032.49 67.2051 1031.94 67.7454C1031.99 68.7776 1033.72 69.7374 1030.39 70.9146C1029.82 70.9387 1028.74 72.0193 1028.18 72.0434C1025.99 73.6884 1032.86 75.9792 1021.59 76.4622L1017.65 76.6312C1013.77 78.3487 1009.81 78.0016 1005.84 77.6545C1005.84 77.6545 1005.28 77.6787 1004.72 77.7028C1003.03 77.7753 1001.9 77.8236 1000.21 77.896C999.082 77.9443 997.392 78.0168 996.266 78.0651C991.759 78.2583 966.242 79.3521 962.321 80.0373C962.321 80.0373 962.321 80.0373 962.343 80.5534C962.95 81.5615 963.558 82.5696 962.498 84.1663C962.498 84.1663 962.409 82.1018 962.343 80.5534C965.767 81.4408 963.58 83.0857 964.21 84.61C968.22 85.9893 963.194 87.2389 964.387 88.739C962.741 89.8437 962.785 90.8759 964.519 91.8357L964.564 92.8679C967.469 94.8117 958.389 93.6497 957.87 94.7061C963.029 96.5533 960.234 97.1901 954.619 97.4308C950.675 97.5999 947.295 97.7448 943.33 97.3977C934.338 98.3002 924.784 99.2269 915.748 99.0972L915.185 99.1213C907.839 98.9191 908.489 99.4083 901.166 99.7223C900.602 99.7464 899.475 99.7947 898.912 99.8189C898.912 99.8189 898.349 99.843 897.785 99.8672C896.659 99.9155 894.969 99.9879 893.842 100.036L897.785 99.8672C894.405 100.012 891.025 100.157 887.082 100.326C879.195 100.664 880.99 101.104 873.081 100.926L862.941 101.361C856.181 101.651 849.421 101.941 842.638 101.714C838.132 101.907 833.061 102.125 828.555 102.318C821.794 102.608 814.493 103.438 808.252 102.671C806.562 102.744 804.308 102.84 802.618 102.913C795.295 103.227 787.43 104.081 780.084 103.879C773.888 104.144 767.691 104.41 761.494 104.676C751.917 105.086 741.799 106.037 732.763 105.907C724.876 106.245 716.989 106.583 709.103 106.922C706.849 107.018 704.596 107.115 702.342 107.211C700.652 107.284 699.548 107.848 697.836 107.405C691.075 107.694 684.315 107.984 677.555 108.274C677.555 108.274 671.922 108.515 669.105 108.636C633.05 110.182 597.582 112.219 561.527 113.765C537.867 114.779 513.643 115.818 489.982 116.832C486.602 116.977 482.658 117.146 479.278 117.291C479.278 117.291 478.152 117.339 477.588 117.363C476.462 117.412 475.335 117.46 473.645 117.532C452.193 117.418 428.643 121.013 409.854 117.164C410.98 117.116 411.544 117.092 412.67 117.044C412.67 117.044 412.67 117.044 412.107 117.068C412.107 117.068 410.98 117.116 409.854 117.164C403.094 117.454 396.311 117.228 390.611 115.921C386.668 116.09 383.829 115.695 382.095 114.735C375.246 112.96 381.896 110.09 377.3 108.219C375.003 107.283 376.085 106.202 377.168 105.122C373.699 103.202 376.449 101.533 375.234 99.5169C373.5 98.5571 374.604 97.9927 375.124 96.9363L375.82 100.009ZM1027.14 74.1562L1026.01 74.2045C1026.01 74.2045 1026.58 74.1803 1027.14 74.1562ZM969.245 53.3698C969.245 53.3698 970.372 53.3215 970.935 53.2973C969.809 53.3456 968.682 53.3939 967.555 53.4422C967.555 53.4422 968.682 53.3939 969.245 53.3698ZM936.36 36.682C936.36 36.682 934.67 36.7544 933.543 36.8027C933.543 36.8027 934.107 36.7786 934.67 36.7544L935.797 36.7061L936.36 36.682ZM422.916 40.0779C422.916 40.0779 423.48 40.0537 424.043 40.0296C424.043 40.0296 423.48 40.0537 422.916 40.0779ZM480.192 72.7834C480.192 72.7834 480.192 72.7834 480.756 72.7593L480.192 72.7834ZM728.728 51.2706C728.728 51.2706 728.728 51.2706 728.706 50.7545C728.706 50.7545 728.142 50.7786 727.579 50.8028C727.579 50.8028 727.579 50.8028 728.706 50.7545L728.728 51.2706ZM760.442 66.9745L761.569 66.9262C759.879 66.9986 759.315 67.0228 758.189 67.0711C758.189 67.0711 759.315 67.0228 759.879 66.9986L760.442 66.9745ZM602.019 57.7366C602.019 57.7366 602.019 57.7366 602.582 57.7124C602.582 57.7124 602.582 57.7124 602.019 57.7366ZM612.072 81.608C612.072 81.608 612.072 81.608 612.635 81.5838C612.635 81.5838 612.635 81.5838 612.072 81.608ZM515.45 52.6574C515.45 52.6574 514.301 52.1896 513.197 52.754C513.197 52.754 512.633 52.7781 512.07 52.8023C513.197 52.754 514.323 52.7057 515.45 52.6574ZM712.91 50.9146C708.966 51.0836 705.023 51.2527 701.643 51.3976C705.586 51.2285 708.966 51.0836 712.91 50.9146ZM843.927 39.6103C843.927 39.6103 843.927 39.6103 844.49 39.5862C844.49 39.5862 844.49 39.5862 843.927 39.6103ZM860.938 41.4664C862.065 41.4181 862.628 41.394 863.755 41.3457C862.628 41.394 862.065 41.4181 860.916 40.9503L860.938 41.4664ZM449.627 57.5474C449.627 57.5474 448.5 57.5957 447.396 58.1601C448.522 58.1118 449.649 58.0635 449.627 57.5474ZM467.896 36.0814C473.507 35.3238 479.704 35.0581 485.293 33.7844C480.267 35.034 475.241 36.2836 467.896 36.0814ZM847.244 90.6582C847.244 90.6582 852.877 90.4167 855.694 90.296C852.877 90.4167 850.061 90.5375 847.244 90.6582ZM514.524 83.7214C514.524 83.7214 511.663 82.8099 509.41 82.9065C511.1 82.8341 512.812 83.2777 514.524 83.7214ZM482.8 80.9448C482.8 80.9448 487.87 80.7275 488.433 80.7033C488.433 80.7033 488.997 80.6792 489.56 80.655C487.307 80.7516 485.075 81.3643 482.822 81.4609L482.8 80.9448ZM469.444 72.21C469.444 72.21 468.881 72.2342 467.754 72.2825C468.881 72.2342 470.008 72.1859 471.135 72.1376C471.135 72.1376 470.008 72.1859 469.444 72.21ZM683.405 34.0819C683.405 34.0819 683.968 34.0577 684.531 34.0336C684.531 34.0336 683.405 34.0819 682.841 34.106C682.841 34.106 682.841 34.106 683.405 34.0819ZM895.324 40.5094C895.324 40.5094 892.507 40.6302 890.232 40.2106C890.232 40.2106 889.669 40.2348 889.713 41.267C891.403 41.1946 893.656 41.098 895.346 41.0255L895.324 40.5094ZM877.719 77.4591C877.719 77.4591 875.466 77.5557 874.339 77.604C874.902 77.5799 876.029 77.5316 876.615 78.0236C876.615 78.0236 876.592 77.5075 877.697 76.943L877.719 77.4591ZM808.936 92.3004C808.936 92.3004 810.626 92.228 810.67 93.2602C810.67 93.2602 810.67 93.2602 811.212 92.7199C810.085 92.7682 809.522 92.7924 808.958 92.8165L808.936 92.3004ZM737.204 104.166C737.204 104.166 739.457 104.069 740.584 104.021C739.457 104.069 738.33 104.117 737.204 104.166ZM421.979 57.6985C421.979 57.6985 421.979 57.6985 422.542 57.6744C421.415 57.7227 421.415 57.7227 420.852 57.7468C420.852 57.7468 421.415 57.7227 421.979 57.6985ZM805.088 28.8655C805.088 28.8655 806.215 28.8172 807.341 28.7689C806.778 28.7931 805.651 28.8414 805.088 28.8655ZM905.607 30.2442L904.481 30.2925C904.481 30.2925 904.481 30.2925 905.044 30.2684C905.044 30.2684 905.044 30.2684 905.607 30.2442ZM946.08 95.7286C946.08 95.7286 946.08 95.7286 944.953 95.7769C945.517 95.7527 946.08 95.7286 946.644 95.7044C946.644 95.7044 946.644 95.7044 946.08 95.7286ZM772.793 91.7815C772.793 91.7815 772.793 91.7815 772.23 91.8057L772.793 91.7815ZM670.032 103.943C670.032 103.943 668.906 103.991 668.342 104.015C668.906 103.991 669.469 103.967 670.032 103.943ZM584.911 93.1138C584.911 93.1138 584.911 93.1138 584.347 93.1379C584.347 93.1379 584.347 93.1379 584.911 93.1138ZM460.244 81.3947C460.244 81.3947 459.68 81.4188 459.117 81.443C459.117 81.443 460.244 81.3947 460.807 81.3705L460.244 81.3947ZM426.499 97.3193L425.936 97.3434C425.372 97.3676 424.809 97.3917 423.704 97.9561C424.831 97.9078 425.958 97.8595 426.521 97.8354L426.499 97.3193ZM399.622 62.7935C399.622 62.7935 399.622 62.7935 400.185 62.7693C400.185 62.7693 400.185 62.7693 399.622 62.7935ZM412.965 58.0849C412.965 58.0849 412.943 57.5688 412.921 57.0527C412.921 57.0527 412.943 57.5688 412.965 58.0849ZM508.799 29.1572C508.799 29.1572 508.799 29.1572 508.236 29.1814L508.799 29.1572ZM788.596 25.953C788.596 25.953 788.596 25.953 789.159 25.9289C789.159 25.9289 789.159 25.9289 788.596 25.953ZM1013.98 70.0665C1013.98 70.0665 1016.26 70.4861 1017.39 70.4378L1017.34 69.4055C1016.21 69.4538 1015.65 69.478 1013.96 69.5504L1013.98 70.0665ZM936.592 98.2036C932.648 98.3727 929.268 98.5176 925.303 98.1705C926.993 98.098 929.268 98.5176 931.522 98.421C933.775 98.3244 936.028 98.2278 938.282 98.1312C937.718 98.1553 937.155 98.1795 936.592 98.2036ZM422.501 109.383C422.501 109.383 422.501 109.383 421.938 109.407C421.938 109.407 422.501 109.383 423.064 109.359L422.501 109.383ZM514.929 27.3432C514.929 27.3432 514.929 27.3432 514.366 27.3673L514.929 27.3432ZM764.261 24.4108C764.261 24.4108 764.261 24.4108 763.698 24.435L764.261 24.4108ZM963.29 32.9422C963.29 32.9422 963.29 32.9422 963.854 32.918C964.417 32.8939 962.164 32.9905 963.854 32.918L963.29 32.9422ZM1005.76 62.6628L1006.89 62.6145C1006.33 62.6386 1005.76 62.6628 1005.2 62.6869L1005.76 62.6628ZM896.659 99.9155C896.659 99.9155 897.222 99.8913 897.785 99.8672L896.659 99.9155ZM616.305 114.519C616.305 114.519 616.305 114.519 615.742 114.543L616.305 114.519ZM543.07 117.659C543.07 117.659 543.633 117.634 544.196 117.61C544.196 117.61 544.196 117.61 543.633 117.634L543.07 117.659ZM432.046 121.384C429.229 121.505 426.39 121.109 423.551 120.714C426.368 120.593 428.665 121.529 432.046 121.384Z" fill="#FFF1D9"/>
<path d="M654.248 89.6816C650.693 85.7353 652.365 85.2537 670.393 84.4809C672.646 84.3843 674.899 84.2877 676.008 83.8303C673.755 83.9269 672.065 83.9994 669.794 83.6868C666.977 83.8076 666.977 83.8076 666.379 83.0135C657.841 81.3301 661.133 79.1396 660.465 76.709C658.089 73.9417 657.966 71.0779 658.389 67.7807C657.245 67.4199 658.336 66.5534 660.009 66.0718C659.956 64.8444 657.615 62.8954 668.917 63.2307C679.057 62.796 676.734 61.2561 677.245 60.0046C673.213 58.128 678.196 55.865 672.475 54.0609C662.212 51.6317 663.779 48.6954 665.329 45.35C663.023 44.2192 662.407 43.016 665.153 41.2588C664.925 35.9402 669.943 34.4954 684.59 33.8675C691.914 33.5536 698.639 32.4455 705.98 32.5407C705.416 32.5649 704.29 32.6132 703.744 33.0464C703.744 33.0464 704.871 32.9981 705.98 32.5407C706.543 32.5166 707.106 32.4924 707.67 32.4683C718.338 31.1912 729.623 31.1173 740.326 30.6585C764.55 29.62 788.211 28.6057 811.907 28.4097C823.772 28.7208 836.694 27.3471 848.577 28.0673C863.735 26.1879 877.889 27.2207 893.117 26.9777C902.13 26.5913 911.69 25.7717 920.192 26.6368C939.346 25.8157 957.989 26.2461 977.178 26.2433C986.227 26.6751 996.332 25.4222 1005.94 25.8299L1007.07 25.7816C1017.77 25.3227 1029.06 25.2489 1039.76 24.79C1050.47 24.3312 1061.73 23.8482 1072.44 23.3893C1073 23.3652 1074.13 23.3169 1074.69 23.2927C1083.72 23.3155 1093.32 23.314 1102.88 22.4944C1112.45 22.0838 1122.03 21.6733 1131.08 22.1051C1140.09 21.7187 1148.56 21.7656 1157.03 21.8125C1157.59 21.7883 1158.72 21.74 1159.28 21.7159C1165.48 21.4502 1171.67 21.1846 1179.61 22.0738C1172.85 22.3636 1168.92 22.8054 1167.82 23.3992C1174.61 23.9277 1183.03 22.7472 1189.82 23.2756C1194.89 23.0583 1200.53 22.8168 1205.62 23.0086C1210.69 22.7912 1215.76 22.5739 1216.95 24.1621C1218.15 25.7503 1219.36 27.7476 1220.56 29.3358L1224.5 29.1667L1235.24 29.5261C1239.75 29.3329 1244.26 29.1397 1248.76 28.9465C1249.89 28.8982 1251.58 28.8258 1252.71 28.7775C1256.09 28.6326 1258.9 28.5118 1261.72 28.3911C1263.97 28.2945 1266.79 28.1737 1267.93 28.5346C1269.62 28.4621 1270.21 28.8471 1270.22 29.2562C1270.79 29.2321 1271.35 29.2079 1271.91 29.1838C1273.6 29.1113 1275.86 29.0147 1275.86 29.0147C1277.02 29.7847 1272.51 29.9779 1271.97 30.4111C1274.24 30.7236 1278.73 30.1213 1278.78 31.3487C1278.78 31.3487 1275.4 31.4936 1273.71 31.566C1273.14 31.5902 1272.6 32.0235 1271.49 32.4809C1273.78 33.2025 1271.52 33.2991 1269.27 33.3957C1267.58 33.4682 1266.45 33.5165 1264.78 33.9981C1267.67 35.5138 1270.54 36.6204 1273.43 38.1362C1274.01 38.5211 1275.15 38.882 1275.73 39.2669C1275.73 39.2669 1275.2 40.1093 1272.95 40.2059C1272.95 40.2059 1270.22 42.3723 1265.15 42.5896C1265.15 42.5896 1265.17 42.9988 1265.19 43.4079C1267.44 43.3113 1267.46 43.7204 1265.22 44.2261C1264.09 44.2744 1262.42 44.756 1261.31 45.2134C1263.57 45.1168 1269.5 47.2887 1270.66 48.0587C1269.54 48.107 1264.4 48.3271 1262.71 48.3995L1254.62 47.1397C1259.13 46.9465 1263.64 46.7533 1267.07 47.8358C1258.06 48.2222 1250.13 47.7421 1242.23 47.671L1246.66 45.7343C1248.97 46.8651 1252.96 45.984 1256.4 47.0665C1259.81 47.7399 1266.15 39.6775 1270.7 40.3025C1274.09 40.5668 1277.78 40.9726 1281.18 41.2368C1286.82 40.9953 1297.8 40.7104 1303.47 41.2872C1305.73 41.1906 1302.47 46.2855 1304.17 46.6221C1306.43 46.5255 1308.25 47.4532 1309.94 47.3808C1309.96 47.7899 1313.46 50.3559 1313.49 51.1741C1312.43 52.8589 1309.69 54.6162 1315.94 55.5779C1315.94 55.5779 1313.72 56.4927 1312.61 56.9502C1312.06 57.3834 1310.96 57.8408 1310.41 58.2741C1310.44 59.0924 1312.17 59.8382 1308.82 60.8013C1308.26 60.8255 1307.17 61.692 1306.61 61.7162C1304.41 63.0401 1311.25 64.7959 1299.99 65.2789L1296.04 65.448C1292.15 66.8444 1288.19 66.6043 1284.23 66.3643C1284.23 66.3643 1283.67 66.3884 1283.1 66.4126C1281.41 66.485 1280.29 66.5333 1278.6 66.6058C1277.47 66.6541 1275.78 66.7265 1274.65 66.7748C1270.15 66.968 1244.63 68.0619 1240.7 68.64C1240.7 68.64 1240.7 68.6401 1240.72 69.0492C1241.32 69.8433 1241.92 70.6374 1240.84 71.913C1240.84 71.913 1240.77 70.2765 1240.72 69.0492C1244.14 69.7225 1241.94 71.0465 1242.55 72.2497C1246.55 73.308 1241.51 74.3436 1242.69 75.5227C1241.04 76.4134 1241.07 77.2316 1242.8 77.9774L1242.83 78.7957C1245.72 80.3114 1236.65 79.4705 1236.12 80.3128C1241.26 81.732 1238.47 82.2619 1232.85 82.5026C1228.91 82.6716 1225.53 82.8165 1221.57 82.5764C1212.57 83.372 1203.01 84.1916 1193.98 84.1689L1193.42 84.1931C1186.07 84.0979 1186.72 84.4801 1179.4 84.794C1178.83 84.8182 1177.71 84.8665 1177.14 84.8906C1177.14 84.8906 1176.58 84.9148 1176.02 84.9389C1174.89 84.9872 1173.2 85.0597 1172.07 85.108L1176.02 84.9389C1172.64 85.0838 1169.26 85.2287 1165.31 85.3978C1157.43 85.7359 1159.22 86.069 1151.31 85.998L1141.17 86.4326C1134.41 86.7224 1127.65 87.0122 1120.87 86.8929C1116.37 87.0861 1111.3 87.3035 1106.79 87.4967C1100.03 87.7865 1092.72 88.5095 1086.49 87.9569C1084.8 88.0294 1082.55 88.126 1080.86 88.1984C1073.54 88.5124 1065.67 89.2596 1058.33 89.1644C1052.13 89.4301 1045.93 89.6957 1039.73 89.9614C1030.16 90.3719 1020.03 91.2157 1011 91.193C1003.12 91.5311 995.23 91.8692 987.343 92.2073C985.09 92.3039 982.836 92.4005 980.583 92.4971C978.893 92.5695 977.784 93.027 976.076 92.6903C969.316 92.9801 962.556 93.2699 955.796 93.5597C955.796 93.5597 950.162 93.8012 947.345 93.9219C911.291 95.4675 875.818 97.3981 839.763 98.9437C816.103 99.958 791.879 100.996 768.218 102.011C764.838 102.156 760.895 102.325 757.514 102.47C757.514 102.47 756.388 102.518 755.824 102.542C754.698 102.59 753.571 102.639 751.881 102.711C730.439 102.81 706.866 105.87 688.117 102.985C689.244 102.937 689.807 102.913 690.934 102.864C690.934 102.864 690.934 102.864 690.371 102.889C690.371 102.889 689.244 102.937 688.117 102.985C681.357 103.275 674.579 103.156 668.893 102.17C664.95 102.339 662.116 102.051 660.39 101.305C653.56 99.958 660.233 97.6226 655.656 96.1793C653.367 95.4577 654.459 94.5911 655.55 93.7246C652.1 92.233 654.864 90.8849 653.667 89.2967C651.942 88.5509 653.051 88.0934 653.58 87.251L654.248 89.6816ZM1305.55 63.4009L1304.42 63.4492C1304.42 63.4492 1304.99 63.4251 1305.55 63.4009ZM1247.86 47.4295C1247.86 47.4295 1248.99 47.3812 1249.55 47.3571C1248.43 47.4054 1247.3 47.4537 1246.17 47.502C1246.17 47.502 1247.3 47.4537 1247.86 47.4295ZM1215.14 34.4867C1215.14 34.4867 1213.45 34.5592 1212.32 34.6075C1212.32 34.6075 1212.88 34.5833 1213.45 34.5592L1214.57 34.5109L1215.14 34.4867ZM701.859 41.7346C701.859 41.7346 702.422 41.7105 702.985 41.6863C702.985 41.6863 702.422 41.7105 701.859 41.7346ZM758.823 67.1642C758.823 67.1642 758.823 67.1642 759.386 67.14L758.823 67.1642ZM1007.45 47.8984C1007.45 47.8984 1007.45 47.8984 1007.44 47.4893C1007.44 47.4893 1006.87 47.5134 1006.31 47.5376C1006.31 47.5376 1006.31 47.5376 1007.44 47.4893L1007.45 47.8984ZM1039.02 60.0712L1040.14 60.0229C1038.45 60.0954 1037.89 60.1195 1036.76 60.1678C1036.76 60.1678 1037.89 60.1195 1038.45 60.0954L1039.02 60.0712ZM880.736 54.1503C880.736 54.1503 880.736 54.1503 881.3 54.1262C881.3 54.1262 881.3 54.1262 880.736 54.1503ZM890.574 72.9927C890.574 72.9927 890.574 72.9927 891.138 72.9686C891.138 72.9686 891.138 72.9686 890.574 72.9927ZM794.246 50.8902C794.246 50.8902 793.102 50.5293 791.992 50.9868C791.992 50.9868 791.429 51.0109 790.866 51.0351C791.992 50.9868 793.119 50.9385 794.246 50.8902ZM991.646 47.7563C987.702 47.9254 983.759 48.0944 980.379 48.2393C984.322 48.0703 987.702 47.9254 991.646 47.7563ZM1122.71 37.6291C1122.71 37.6291 1122.71 37.6291 1123.28 37.6049C1123.28 37.6049 1123.28 37.6049 1122.71 37.6291ZM1139.7 38.9502C1140.83 38.9019 1141.39 38.8777 1142.52 38.8294C1141.39 38.8777 1140.83 38.9019 1139.68 38.5411L1139.7 38.9502ZM728.404 55.3522C728.404 55.3522 727.277 55.4005 726.168 55.8579C727.295 55.8096 728.422 55.7613 728.404 55.3522ZM746.856 38.1662C752.472 37.5155 758.669 37.2499 764.268 36.1901C759.233 37.2257 754.198 38.2613 746.856 38.1662ZM1125.58 78.084C1125.58 78.084 1131.21 77.8425 1134.03 77.7217C1131.21 77.8425 1128.39 77.9632 1125.58 78.084ZM793.045 75.5342C793.045 75.5342 790.193 74.8367 787.94 74.9333C789.63 74.8608 791.337 75.1975 793.045 75.5342ZM761.357 73.6136C761.357 73.6136 766.427 73.3962 766.99 73.3721C766.99 73.3721 767.554 73.3479 768.117 73.3238C765.864 73.4204 763.628 73.9261 761.374 74.0227L761.357 73.6136ZM748.084 66.8048C748.084 66.8048 747.521 66.8289 746.394 66.8772C747.521 66.8289 748.648 66.7806 749.774 66.7323C749.774 66.7323 748.648 66.7806 748.084 66.8048ZM962.301 34.6687C962.301 34.6687 962.865 34.6445 963.428 34.6204C963.428 34.6204 962.301 34.6687 961.738 34.6928C961.738 34.6928 961.738 34.6928 962.301 34.6687ZM1174.08 37.8862C1174.08 37.8862 1171.27 38.0069 1169 37.6944C1169 37.6944 1168.43 37.7186 1168.47 38.5368C1170.16 38.4643 1172.41 38.3678 1174.1 38.2953L1174.08 37.8862ZM1156.16 67.3459C1156.16 67.3459 1153.9 67.4425 1152.78 67.4908C1153.34 67.4666 1154.47 67.4184 1155.05 67.8033C1155.05 67.8033 1155.03 67.3942 1156.14 66.9368L1156.16 67.3459ZM1087.27 79.7262C1087.27 79.7262 1088.96 79.6537 1088.99 80.472C1088.99 80.472 1088.99 80.472 1089.54 80.0387C1088.41 80.087 1087.85 80.1111 1087.29 80.1353L1087.27 79.7262ZM1015.46 89.7724C1015.46 89.7724 1017.71 89.6758 1018.84 89.6275C1017.71 89.6758 1016.58 89.7241 1015.46 89.7724ZM700.765 55.7173C700.765 55.7173 700.765 55.7173 701.328 55.6931C700.202 55.7414 700.202 55.7414 699.638 55.7656C699.638 55.7656 700.202 55.7414 700.765 55.7173ZM1083.98 29.4523C1083.98 29.4523 1085.11 29.404 1086.24 29.3557C1085.67 29.3799 1084.55 29.4282 1083.98 29.4523ZM1184.45 29.654L1183.33 29.7023C1183.33 29.7023 1183.33 29.7023 1183.89 29.6781C1183.89 29.6781 1183.89 29.6781 1184.45 29.654ZM1224.33 81.2283C1224.33 81.2283 1224.33 81.2283 1223.2 81.2766C1223.77 81.2525 1224.33 81.2283 1224.89 81.2042C1224.89 81.2042 1224.89 81.2042 1224.33 81.2283ZM1051.14 79.6353C1051.14 79.6353 1051.14 79.6353 1050.58 79.6594L1051.14 79.6353ZM948.314 90.1915C948.314 90.1915 947.188 90.2398 946.624 90.264C947.188 90.2398 947.751 90.2157 948.314 90.1915ZM863.321 82.3585C863.321 82.3585 863.321 82.3585 862.758 82.3827C862.758 82.3827 862.758 82.3827 863.321 82.3585ZM738.805 74.1704C738.805 74.1704 738.242 74.1946 737.679 74.2187C737.679 74.2187 738.805 74.1704 739.369 74.1463L738.805 74.1704ZM704.932 87.099L704.369 87.1232C703.805 87.1473 703.242 87.1715 702.133 87.6289C703.26 87.5806 704.386 87.5323 704.95 87.5081L704.932 87.099ZM678.371 59.9563C678.371 59.9563 678.371 59.9563 678.935 59.9321C678.935 59.9321 678.935 59.9321 678.371 59.9563ZM691.751 56.1037C691.751 56.1037 691.734 55.6945 691.716 55.2854C691.716 55.2854 691.734 55.6945 691.751 56.1037ZM787.806 32.312C787.806 32.312 787.806 32.312 787.242 32.3361L787.806 32.312ZM1067.52 27.2888C1067.52 27.2888 1067.52 27.2888 1068.09 27.2646C1068.09 27.2646 1068.09 27.2646 1067.52 27.2888ZM1292.43 60.2743C1292.43 60.2743 1294.71 60.5868 1295.83 60.5385L1295.8 59.7203C1294.67 59.7686 1294.11 59.7927 1292.42 59.8652L1292.43 60.2743ZM1214.82 83.2754C1210.88 83.4444 1207.5 83.5893 1203.54 83.3492C1205.23 83.2768 1207.5 83.5893 1209.75 83.4927C1212.01 83.3961 1214.26 83.2995 1216.51 83.2029C1215.95 83.2271 1215.39 83.2512 1214.82 83.2754ZM700.829 96.7021C700.829 96.7021 700.829 96.7021 700.265 96.7262C700.265 96.7262 700.829 96.7021 701.392 96.6779L700.829 96.7021ZM793.95 30.819C793.95 30.819 793.95 30.819 793.386 30.8431L793.95 30.819ZM1043.21 26.2816C1043.21 26.2816 1043.21 26.2816 1042.65 26.3058L1043.21 26.2816ZM1242.09 31.2819C1242.09 31.2819 1242.09 31.2819 1242.65 31.2578C1240.96 31.3302 1243.22 31.2336 1242.65 31.2578L1242.09 31.2819ZM1284.28 54.4755L1285.41 54.4272C1284.85 54.4514 1284.28 54.4755 1283.72 54.4997L1284.28 54.4755ZM1174.89 84.9872C1174.89 84.9872 1175.45 84.9631 1176.02 84.9389L1174.89 84.9872ZM894.513 99.0559C894.513 99.0559 894.513 99.0559 893.95 99.08L894.513 99.0559ZM821.278 102.195C821.278 102.195 821.841 102.171 822.405 102.147C822.405 102.147 822.405 102.147 821.841 102.171L821.278 102.195ZM710.263 106.135C707.447 106.255 704.612 105.967 701.778 105.679C704.595 105.558 706.883 106.28 710.263 106.135Z" fill="#FFF1D9"/>
</svg>
