<svg width="552" height="64" viewBox="0 0 552 64" fill="none" xmlns="http://www.w3.org/2000/svg">
<path d="M1.43099 47.4612C-1.39292 44.0098 0.00917137 43.6567 14.9828 43.5859C16.8545 43.577 18.7262 43.5682 19.6604 43.2173C17.7887 43.2261 16.385 43.2328 14.5117 42.8951C12.172 42.9062 12.172 42.9062 11.7007 42.2155C4.67363 40.5163 7.47308 38.7707 6.99529 36.6941C5.11214 34.2776 5.10066 31.8523 5.5555 29.0783C4.61796 28.7363 5.55059 28.0389 6.95268 27.6858C6.94776 26.6464 5.06788 24.9229 14.4297 25.5716C22.8523 25.5317 20.974 24.1547 21.4371 23.1131C18.1533 21.3962 22.3565 19.6439 17.6691 17.9337C9.23495 15.5482 10.6273 13.1163 12.0179 10.3379C10.1413 9.30732 9.66842 8.27012 12.0015 6.87316C11.9802 2.36903 16.1867 1.3097 28.3527 1.25214C34.4358 1.22337 40.0476 0.50386 46.1323 0.821555C45.6644 0.823769 44.7285 0.828196 44.2622 1.17688C44.2622 1.17688 45.198 1.17245 46.1323 0.821555C46.6002 0.819341 47.0681 0.817128 47.536 0.814914C56.4234 0.0799129 65.7835 0.382113 74.6741 0.340054C94.7949 0.24487 114.448 0.151899 134.104 0.751871C143.934 1.39833 154.693 0.654473 164.524 1.6474C177.153 0.548221 188.858 1.87877 201.494 2.16547C208.98 2.13005 216.933 1.74595 223.957 2.75216C239.867 2.6769 255.313 3.64327 271.226 4.26095C278.716 4.91847 287.136 4.18569 295.094 4.841L296.029 4.83657C304.92 4.79451 314.28 5.09671 323.171 5.05465C332.061 5.0126 341.42 4.96832 350.31 4.92627C350.778 4.92405 351.714 4.91962 352.182 4.91741C359.671 5.22846 367.627 5.53731 375.58 5.1532C383.535 5.11557 391.49 5.07794 398.98 5.73547C406.466 5.70005 413.487 6.01332 420.508 6.32658C420.975 6.32437 421.911 6.31994 422.379 6.31773C427.526 6.29338 432.674 6.26903 439.23 7.27746C433.614 7.30402 430.34 7.55049 429.406 8.01688C435.025 8.68326 442.04 7.95712 447.659 8.6235C451.87 8.60358 456.549 8.58144 460.762 8.90799C464.974 8.88807 469.185 8.86814 470.127 10.2496C471.07 11.6311 472.014 13.359 472.956 14.7405L476.232 14.725L485.126 15.3758C488.869 15.3581 492.612 15.3404 496.356 15.3227C497.292 15.3183 498.695 15.3116 499.631 15.3072C502.439 15.2939 504.779 15.2829 507.118 15.2718C508.99 15.2629 511.329 15.2519 512.267 15.5939C513.671 15.5873 514.14 15.9315 514.142 16.278C514.61 16.2758 515.078 16.2736 515.546 16.2714C516.949 16.2647 518.821 16.2559 518.821 16.2559C519.76 16.9444 516.017 16.9621 515.551 17.3108C517.424 17.6484 521.166 17.2842 521.171 18.3236C521.171 18.3236 518.363 18.3369 516.959 18.3436C516.491 18.3458 516.025 18.6945 515.091 19.0454C516.966 19.7294 515.094 19.7383 513.222 19.7472C511.819 19.7538 510.883 19.7582 509.481 20.1113C511.827 21.4862 514.171 22.5145 516.518 23.8893C516.987 24.2336 517.925 24.5756 518.394 24.9199C518.394 24.9199 517.93 25.615 516.058 25.6239C516.058 25.6239 513.726 27.3673 509.515 27.3872C509.515 27.3872 509.517 27.7337 509.518 28.0802C511.39 28.0713 511.392 28.4178 509.522 28.7731C508.586 28.7776 507.184 29.1307 506.249 29.4816C508.121 29.4727 512.975 31.5008 513.914 32.1893C512.978 32.1937 508.713 32.2139 507.309 32.2205L500.641 30.894C504.384 30.8763 508.128 30.8586 510.94 31.8847C503.453 31.9201 496.899 31.2582 490.347 30.9427L494.086 29.4486C495.963 30.4792 499.301 29.8633 502.113 30.8894C504.924 31.5691 510.44 24.9575 514.186 25.6327C516.995 25.9659 520.043 26.4283 522.852 26.7615C527.531 26.7394 536.653 26.8536 541.335 27.5244C543.207 27.5156 540.343 31.7178 541.748 32.0576C543.62 32.0488 545.104 32.8921 546.508 32.8854C546.51 33.2319 549.328 35.5144 549.331 36.2073C548.402 37.5977 546.069 38.9946 551.221 40.0097C551.221 40.0097 549.353 40.7115 548.419 41.0624C547.952 41.4111 547.018 41.762 546.552 42.1106C546.555 42.8036 547.962 43.4899 545.158 44.1961C544.69 44.1983 543.757 44.8957 543.289 44.8979C541.423 45.9462 547.046 47.652 537.687 47.6962L534.412 47.7117C531.141 48.7666 527.864 48.4357 524.587 48.1047C524.587 48.1047 524.119 48.1069 523.651 48.1091C522.247 48.1158 521.312 48.1202 519.908 48.1268C518.972 48.1313 517.568 48.1379 516.632 48.1423C512.889 48.16 491.694 48.2603 488.42 48.6223C488.42 48.6223 488.42 48.6223 488.422 48.9687C488.893 49.6595 489.364 50.3502 488.433 51.394C488.433 51.394 488.427 50.0082 488.422 48.9687C491.233 49.6484 489.366 50.6967 489.839 51.7339C493.119 52.7578 488.911 53.4707 489.852 54.5056C488.451 55.2052 488.455 55.8982 489.862 56.5845L489.865 57.2774C492.211 58.6522 484.719 57.6482 484.255 58.3434C488.473 59.7094 486.135 60.0669 481.471 60.089C478.195 60.1045 475.388 60.1177 472.111 59.7868C464.625 60.1687 456.672 60.5528 449.184 60.2417L448.716 60.2439C442.631 59.9262 443.155 60.2702 437.072 60.299C436.604 60.3012 435.668 60.3056 435.2 60.3079C435.2 60.3079 434.732 60.3101 434.264 60.3123C433.328 60.3167 431.924 60.3234 430.989 60.3278L434.264 60.3123C431.456 60.3256 428.649 60.3388 425.373 60.3543C418.822 60.3853 420.297 60.7248 413.744 60.4094L405.322 60.4492C399.707 60.4758 394.091 60.5023 388.475 60.1824C384.731 60.2001 380.52 60.22 376.777 60.2378C371.161 60.2643 365.08 60.6396 359.93 59.971C358.526 59.9776 356.654 59.9865 355.25 59.9931C349.167 60.0219 342.618 60.3993 336.533 60.0817C331.386 60.106 326.239 60.1304 321.092 60.1547C313.137 60.1923 304.716 60.5786 297.227 60.2676C290.676 60.2986 284.126 60.3296 277.575 60.3606C275.703 60.3694 273.831 60.3783 271.959 60.3871C270.556 60.3938 269.621 60.7447 268.216 60.4048C262.601 60.4314 256.986 60.458 251.371 60.4845C251.371 60.4845 246.691 60.5067 244.352 60.5177C214.405 60.6594 184.927 61.1453 154.98 61.287C135.327 61.38 115.206 61.4751 95.553 61.5681C92.7454 61.5814 89.4699 61.5969 86.6624 61.6102C86.6624 61.6102 85.7265 61.6146 85.2586 61.6168C84.3228 61.6212 83.3869 61.6257 81.9831 61.6323C64.1986 61.0235 44.554 62.8488 29.0977 59.8036C30.0335 59.7992 30.5014 59.797 31.4372 59.7926C31.4372 59.7926 31.4372 59.7926 30.9693 59.7948C30.9693 59.7948 30.0335 59.7992 29.0977 59.8036C23.4826 59.8302 17.8658 59.5103 13.1816 58.493C9.90614 58.5085 7.56487 58.1731 6.15779 57.4868C0.536128 56.1275 6.14298 54.3685 2.39306 53.0004C0.518038 52.3163 1.45066 51.6189 2.38323 50.9215C-0.430916 49.5489 1.9038 48.4985 0.961403 47.117C-0.445668 46.4307 0.488535 46.0798 0.953208 45.3846L1.43099 47.4612ZM542.36 46.2882L541.424 46.2927C541.424 46.2927 541.892 46.2904 542.36 46.2882ZM495.026 30.9206C495.026 30.9206 495.962 30.9161 496.43 30.9139C495.494 30.9184 494.558 30.9228 493.622 30.9272C493.622 30.9272 494.558 30.9228 495.026 30.9206ZM468.297 18.9202C468.297 18.9202 466.893 18.9269 465.957 18.9313C465.957 18.9313 466.425 18.9291 466.893 18.9269L467.829 18.9225L468.297 18.9202ZM42.4249 8.46164C42.4249 8.46164 42.8928 8.45942 43.3608 8.45721C43.3608 8.45721 42.8928 8.45942 42.4249 8.46164ZM88.861 31.8026C88.861 31.8026 88.8611 31.8026 89.329 31.8003L88.861 31.8026ZM295.65 23.5482C295.65 23.5482 295.65 23.5482 295.648 23.2018C295.648 23.2018 295.18 23.204 294.712 23.2062C294.712 23.2062 294.712 23.2062 295.648 23.2018L295.65 23.5482ZM321.44 34.8601L322.376 34.8556C320.972 34.8623 320.504 34.8645 319.568 34.8689C319.568 34.8689 320.504 34.8645 320.972 34.8623L321.44 34.8601ZM190.37 24.7392C190.37 24.7392 190.37 24.7392 190.838 24.737C190.838 24.737 190.838 24.737 190.37 24.7392ZM197.934 40.988C197.934 40.988 197.934 40.988 198.402 40.9858C198.402 40.9858 198.402 40.9858 197.934 40.988ZM118.749 19.1879C118.749 19.1879 117.812 18.8459 116.878 19.1968C116.878 19.1968 116.41 19.199 115.942 19.2012C116.878 19.1968 117.813 19.1923 118.749 19.1879ZM282.545 22.9173C279.269 22.9328 275.994 22.9483 273.186 22.9616C276.462 22.9461 279.269 22.9328 282.545 22.9173ZM391.553 18.5903C391.553 18.5903 391.553 18.5903 392.021 18.5881C392.021 18.5881 392.021 18.5881 391.553 18.5903ZM405.599 20.2563C406.535 20.2519 407.003 20.2496 407.939 20.2452C407.003 20.2496 406.535 20.2519 405.598 19.9098L405.599 20.2563ZM64.0085 20.8328C64.0085 20.8328 63.0727 20.8372 62.1385 21.1881C63.0743 21.1837 64.0102 21.1793 64.0085 20.8328ZM79.8524 6.89866C84.53 6.53006 89.6772 6.50571 94.3532 5.79063C90.1452 6.50349 85.9371 7.21636 79.8524 6.89866ZM392.652 52.8866C392.652 52.8866 397.331 52.8645 399.671 52.8534C397.331 52.8645 394.991 52.8755 392.652 52.8866ZM116.976 39.9851C116.976 39.9851 114.633 39.3032 112.761 39.312C114.165 39.3054 115.571 39.6452 116.976 39.9851ZM90.759 37.3372C90.759 37.3372 94.9703 37.3173 95.4383 37.3151C95.4383 37.3151 95.9062 37.3129 96.3741 37.3107C94.5024 37.3195 92.6323 37.6749 90.7606 37.6837L90.759 37.3372ZM79.9672 31.1517C79.9672 31.1517 79.4992 31.1539 78.5634 31.1583C79.4992 31.1539 80.4351 31.1495 81.371 31.145C81.371 31.145 80.4351 31.1495 79.9672 31.1517ZM258.623 10.9037C258.623 10.9037 259.091 10.9015 259.559 10.8992C259.559 10.8992 258.623 10.9037 258.155 10.9059C258.155 10.9059 258.155 10.9059 258.623 10.9037ZM434.145 20.4677C434.145 20.4677 431.805 20.4788 429.932 20.1412C429.932 20.1412 429.464 20.1434 429.467 20.8363C430.871 20.8297 432.742 20.8208 434.146 20.8142L434.145 20.4677ZM418.35 44.796C418.35 44.796 416.478 44.8048 415.542 44.8093C416.01 44.8071 416.946 44.8026 417.416 45.1469C417.416 45.1469 417.414 44.8004 418.348 44.4495L418.35 44.796ZM360.833 53.0371C360.833 53.0371 362.236 53.0305 362.24 53.7234C362.24 53.7234 362.24 53.7234 362.706 53.3747C361.77 53.3792 361.302 53.3814 360.834 53.3836L360.833 53.0371ZM300.966 59.2105C300.966 59.2105 302.838 59.2016 303.774 59.1972C302.838 59.2016 301.902 59.206 300.966 59.2105ZM41.0768 20.2483C41.0768 20.2483 41.0768 20.2483 41.5448 20.2461C40.6089 20.2505 40.609 20.2505 40.141 20.2527C40.141 20.2527 40.6089 20.2505 41.0768 20.2483ZM359.695 10.4255C359.695 10.4255 360.631 10.4211 361.567 10.4167C361.099 10.4189 360.163 10.4233 359.695 10.4255ZM443.004 13.8427L442.068 13.8471C442.068 13.8471 442.068 13.8471 442.536 13.8449C442.536 13.8449 442.536 13.8449 443.004 13.8427ZM474.445 58.7363C474.445 58.7363 474.445 58.7363 473.509 58.7407C473.977 58.7385 474.445 58.7363 474.913 58.7341C474.913 58.7341 474.913 58.7341 474.445 58.7363ZM330.879 51.7929C330.879 51.7929 330.879 51.7929 330.411 51.7951L330.879 51.7929ZM245.273 57.3951C245.273 57.3951 244.337 57.3995 243.869 57.4017C244.337 57.3995 244.805 57.3973 245.273 57.3951ZM175.038 48.0259C175.038 48.0259 175.038 48.0259 174.57 48.0281C174.57 48.0281 174.57 48.0281 175.038 48.0259ZM72.0403 37.0793C72.0403 37.0793 71.5724 37.0815 71.1045 37.0837C71.1045 37.0837 72.0403 37.0793 72.5082 37.0771L72.0403 37.0793ZM43.5427 46.9156L43.0747 46.9178C42.6068 46.92 42.1389 46.9222 41.2047 47.2731C42.1405 47.2687 43.0764 47.2642 43.5444 47.262L43.5427 46.9156ZM22.3729 23.1086C22.3729 23.1086 22.373 23.1086 22.8409 23.1064C22.8409 23.1064 22.8409 23.1064 22.3729 23.1086ZM33.59 20.2837C33.59 20.2837 33.5884 19.9373 33.5867 19.5908C33.5867 19.5908 33.5884 19.9373 33.59 20.2837ZM113.995 3.27236C113.995 3.27236 113.995 3.27236 113.527 3.27457L113.995 3.27236ZM346.114 8.06443C346.114 8.06443 346.114 8.06443 346.582 8.06222C346.582 8.06222 346.582 8.06222 346.114 8.06443ZM531.583 43.2209C531.583 43.2209 533.456 43.5585 534.392 43.5541L534.389 42.8611C533.453 42.8656 532.985 42.8678 531.581 42.8744L531.583 43.2209ZM466.497 60.1598C463.222 60.1753 460.414 60.1886 457.137 59.8576C458.541 59.851 460.414 60.1886 462.286 60.1797C464.157 60.1709 466.029 60.162 467.901 60.1532C467.433 60.1554 466.965 60.1576 466.497 60.1598ZM39.837 54.9021C39.837 54.9021 39.837 54.9021 39.3691 54.9043C39.3691 54.9043 39.837 54.9021 40.3049 54.8999L39.837 54.9021ZM119.137 2.20859C119.137 2.20859 119.137 2.20859 118.669 2.21081L119.137 2.20859ZM325.985 6.42726C325.985 6.42726 325.985 6.42726 325.517 6.42947L325.985 6.42726ZM490.749 17.0816C490.749 17.0816 490.749 17.0816 491.217 17.0794C491.685 17.0772 489.813 17.0861 491.217 17.0794L490.749 17.0816ZM525.008 38.0548L525.943 38.0504C525.475 38.0526 525.008 38.0548 524.54 38.057L525.008 38.0548ZM433.328 60.3167C433.328 60.3167 433.796 60.3145 434.264 60.3123L433.328 60.3167ZM200.378 63.1511C200.378 63.1511 200.378 63.1511 199.91 63.1533L200.378 63.1511ZM139.548 63.4389C139.548 63.4389 140.016 63.4367 140.484 63.4344C140.484 63.4344 140.484 63.4344 140.016 63.4367L139.548 63.4389ZM47.3631 63.182C45.0235 63.1931 42.6823 62.8577 40.341 62.5223C42.6806 62.5112 44.5556 63.1953 47.3631 63.182Z" fill="#FA9225"/>
</svg>
